<svg width="29" height="25" viewBox="0 0 29 25" fill="none" xmlns="http://www.w3.org/2000/svg">
<path d="M22.6352 1.05291L19.6579 2.24072L19.0759 0.913452L17.755 1.05619C16.4295 1.19887 15.2753 1.67651 14.1715 2.54576C13.0676 1.67437 11.9214 1.19717 10.6142 1.05613L9.29282 0.913452L8.71131 2.24072L5.73334 1.05291L0.147156 14.0526L3.4828 15.3213V24.7568L14.1709 19.4271L24.859 24.7568V15.33L28.222 14.053L22.6352 1.05291ZM5.12715 22.1034V15.9473L12.1298 18.6115L5.12715 22.1034ZM13.3488 17.3197L2.33299 13.1286L6.6126 3.16948L8.05177 3.74397L4.37577 12.1289L13.3488 15.5706L13.3488 17.3197ZM13.3488 13.8131L7.15622 11.438C8.21413 10.8988 9.47037 10.829 10.6169 11.2942L13.3488 12.4869L13.3488 13.8131ZM13.3488 10.6968L11.2484 9.77988C9.9472 9.24859 8.54357 9.21206 7.26978 9.62096L10.316 2.67368C10.4852 2.71666 11.7901 2.67521 13.3488 3.99433V10.6968ZM14.9929 3.99537C16.5225 2.70748 17.9664 2.69572 18.0532 2.67373L21.0868 9.594C19.8865 9.2125 18.5814 9.26396 17.317 9.77988L14.9929 10.729V3.99537ZM14.9929 12.5012L17.9396 11.2979C19.0538 10.8426 20.2165 10.9022 21.2256 11.4314L14.9929 13.8148V12.5012ZM23.2146 22.1034L16.2137 18.6121L23.2146 15.9542V22.1034ZM14.9929 17.3208V15.571L23.9934 12.1295L20.3168 3.74397L21.7561 3.16953L26.0357 13.1282L14.9929 17.3208Z" fill="#159C3E"/>
</svg>
