<?xml version="1.0" encoding="UTF-8"?>
<svg xmlns="http://www.w3.org/2000/svg" xmlns:xlink="http://www.w3.org/1999/xlink" width="26px" height="26px" viewBox="0 0 26 26" version="1.1">
<g id="surface1">
<path style=" stroke:none;fill-rule:nonzero;fill:rgb(79.215688%,78.823531%,76.078433%);fill-opacity:1;" d="M 8.945312 19.726562 L 5.027344 12.945312 L 8.945312 6.160156 L 16.78125 6.160156 L 20.695312 12.945312 L 16.78125 19.726562 L 8.945312 19.726562 "/>
<path style=" stroke:none;fill-rule:nonzero;fill:rgb(100%,100%,100%);fill-opacity:1;" d="M 12.992188 16.039062 C 11.308594 16.039062 9.941406 14.671875 9.941406 12.988281 C 9.941406 11.304688 11.308594 9.933594 12.992188 9.933594 C 14.675781 9.933594 16.046875 11.304688 16.046875 12.988281 C 16.046875 14.671875 14.675781 16.039062 12.992188 16.039062 "/>
<path style=" stroke:none;fill-rule:nonzero;fill:rgb(31.37255%,44.705883%,66.666669%);fill-opacity:1;" d="M 19.136719 3.882812 C 18.894531 3.46875 18.304688 3.128906 17.828125 3.128906 L 8.171875 3.128906 C 7.691406 3.128906 7.105469 3.46875 6.863281 3.882812 L 4.042969 8.769531 C 4.019531 9.085938 4.078125 9.414062 4.21875 9.65625 L 6.128906 12.921875 L 9.535156 7.03125 L 20.308594 7.03125 C 20.5625 7.03125 20.847656 7.128906 21.097656 7.28125 L 19.136719 3.882812 "/>
<path style=" stroke:none;fill-rule:nonzero;fill:rgb(30.19608%,40.392157%,58.823532%);fill-opacity:1;" d="M 4.164062 8.554688 L 4.042969 8.769531 C 4.019531 9.085938 4.078125 9.414062 4.21875 9.65625 L 6.125 12.921875 L 7.140625 11.164062 L 4.164062 8.554688 "/>
<path style=" stroke:none;fill-rule:nonzero;fill:rgb(80.000001%,25.882354%,19.607843%);fill-opacity:1;" d="M 23.960938 12.242188 L 21.097656 7.28125 C 20.847656 7.128906 20.5625 7.03125 20.308594 7.03125 L 16.425781 7.03125 L 19.785156 12.953125 L 14.464844 22.347656 C 14.347656 22.550781 14.148438 22.734375 13.917969 22.871094 L 17.828125 22.871094 C 18.308594 22.871094 18.894531 22.53125 19.136719 22.117188 L 23.960938 13.757812 C 24.203125 13.339844 24.203125 12.660156 23.960938 12.242188 "/>
<path style=" stroke:none;fill-rule:nonzero;fill:rgb(69.803923%,24.705882%,20%);fill-opacity:1;" d="M 21.226562 7.503906 L 21.097656 7.28125 C 20.851562 7.128906 20.566406 7.03125 20.308594 7.03125 L 16.425781 7.03125 L 17.4375 8.8125 L 21.226562 7.503906 "/>
<path style=" stroke:none;fill-rule:nonzero;fill:rgb(92.54902%,69.01961%,16.470589%);fill-opacity:1;" d="M 9.609375 18.875 L 4.21875 9.65625 C 4.078125 9.414062 4.019531 9.085938 4.042969 8.769531 L 2.039062 12.242188 C 1.796875 12.660156 1.796875 13.339844 2.039062 13.757812 L 6.863281 22.117188 C 7.105469 22.53125 7.691406 22.871094 8.171875 22.871094 L 13.917969 22.871094 C 14.148438 22.734375 14.347656 22.550781 14.464844 22.347656 L 16.429688 18.875 L 9.609375 18.875 "/>
<path style=" stroke:none;fill-rule:nonzero;fill:rgb(78.039217%,59.215689%,19.607843%);fill-opacity:1;" d="M 13.589844 22.871094 L 13.925781 22.871094 C 14.15625 22.734375 14.355469 22.550781 14.472656 22.347656 L 16.4375 18.875 L 14.34375 18.875 L 13.589844 22.871094 "/>
</g>
</svg>
